<svg width="108" height="24" viewBox="0 0 108 24" fill="none" xmlns="http://www.w3.org/2000/svg">
<path fill-rule="evenodd" clip-rule="evenodd" d="M108 23.248H105.06L100.044 17.2574L95.0533 23.248H92.1325L98.5804 15.5082L92.4657 8.20756H95.406L100.045 13.7484L104.662 8.20756H107.583L101.51 15.4977L108 23.248ZM63.6155 23.624C58.9987 23.624 57.6119 22.496 57.6119 22.496V0.687347H59.8633V8.61515C60.6963 8.20305 61.897 7.83155 63.6155 7.83155C68.1752 7.83155 71.8704 11.1585 71.8704 15.7278C71.8704 20.297 68.1752 23.624 63.6155 23.624ZM63.6155 10.0876C62.0531 10.0876 60.7713 10.6877 59.8633 11.3059V20.6159C59.8633 20.6159 61.0715 21.3679 63.6155 21.3679C66.931 21.3679 69.6191 19.0502 69.6191 15.7278C69.6191 12.4053 66.931 10.0876 63.6155 10.0876ZM50.1074 0.687347H52.3588V23.248H50.1074V0.687347ZM44.8543 0.687347V23.248H42.6029V0.687347H44.8543ZM36.1776 4.07144C35.1405 4.07144 34.3015 3.22918 34.3015 2.19139C34.3015 1.1536 35.1405 0.311336 36.1776 0.311336C37.2132 0.311336 38.0537 1.1536 38.0537 2.19139C38.0537 3.22918 37.2132 4.07144 36.1776 4.07144ZM28.7197 23.248L20.8399 15.3518L27.9692 8.20756H31.1526L24.0233 15.3518L31.9031 23.248H28.7197ZM18.5886 23.248V0.687347H20.8399V15.3518V23.248H18.5886ZM15.0225 17.1115C15.0225 20.8806 12.0252 23.6165 7.26584 23.6165C4.186 23.6165 1.78907 22.0914 0 20.3467L1.59245 18.5839C3.08134 20.0053 4.83439 21.3875 7.23432 21.3875C9.90141 21.3875 12.7771 19.8895 12.7771 17.1972C12.7771 14.9637 11.0031 13.5063 7.27935 12.3557C3.03481 11.0532 0.879526 9.29047 0.879526 5.97556C0.879526 2.69374 3.65168 0 7.60054 0C10.5498 0 12.3974 1.26039 14.1925 2.87122L12.6285 4.61139C11.0526 3.21263 9.5517 2.26509 7.7101 2.26509C5.42574 2.26509 3.1759 3.74055 3.1759 5.86576C3.1759 7.79244 4.27906 9.01824 8.17538 10.2139C11.7445 11.3164 15.0225 13.0235 15.0225 17.1115ZM37.3498 23.248H35.0985V8.20756H37.3498V23.248ZM82.7519 24C78.1922 24 74.497 20.297 74.497 15.7278C74.497 11.1585 78.1922 7.45554 82.7519 7.45554C87.3116 7.45554 91.0069 11.1585 91.0069 15.7278C91.0069 20.297 87.3116 24 82.7519 24ZM82.7519 9.7116C79.4364 9.7116 76.7483 12.4053 76.7483 15.7278C76.7483 19.0502 79.4364 21.7439 82.7519 21.7439C86.0674 21.7439 88.7555 19.0502 88.7555 15.7278C88.7555 12.4053 86.0674 9.7116 82.7519 9.7116Z" fill="black"/>
</svg>
